<?xml version="1.0" encoding="UTF-8"?>
<svg id="Layer_2" data-name="Layer 2" xmlns="http://www.w3.org/2000/svg" viewBox="0 0 2442.51 2136.85">
  <g id="Layer_1-2" data-name="Layer 1">
    <path d="m2200.79,2028.85H280.79V0h1920v2028.85Z"/>
    <path d="m2408.21,1965.53c-84.73-6.1-82.65-63.92-167.59-63.92-84.95,0-84.95,64-169.89,64-84.95,0-84.95-64-169.89-64-84.95,0-84.95,64-169.89,64s-84.95-64-169.89-64c-84.95,0-84.95,64-169.89,64-84.95,0-84.95-64-169.89-64-84.95,0-84.95,64-169.89,64-84.95,0-84.95-64-169.89-64s-84.95,64-169.89,64c-84.95,0-84.95-64-169.89-64-84.95,0-84.95,64-169.89,64-84.95,0-84.95-64-169.9-64s-82.87,57.82-167.6,63.92C28.2,1965.97,0,1939.73,0,1945.84s64,6.11,64,12.23S0,1964.18,0,1970.3s64,6.11,64,12.23S0,1988.64,0,1994.76s64,6.11,64,12.23S0,2013.1,0,2019.22s64,6.12,64,12.23S0,2037.56,0,2043.68s64,6.12,64,12.23S0,2062.02,0,2068.14s64,6.12,64,12.23S0,2086.49,0,2092.61s28.2-20.12,34.3-19.68c84.73,6.1,82.65,63.92,167.59,63.92s84.95-64,169.89-64,84.95,64,169.89,64,84.95-64,169.89-64,84.95,64,169.89,64,84.95-64,169.89-64,84.95,64,169.89,64,84.95-64,169.89-64,84.95,64,169.89,64,84.95-64,169.89-64,84.95,64,169.89,64,84.95-64,169.89-64,84.95,64,169.9,64,82.87-57.82,167.6-63.92c6.1-.44,34.3,25.8,34.3,19.69s-64-6.11-64-12.23,64-6.11,64-12.23c0-6.11-64-6.11-64-12.23,0-6.12,64-6.12,64-12.23,0-6.11-64-6.11-64-12.23,0-6.12,64-6.12,64-12.23s-64-6.12-64-12.23,64-6.11,64-12.23-64-6.12-64-12.23,64-6.12,64-12.23-64-6.12-64-12.23.52-3.84,3.18,1.68c4.66,9.64,32.62,6.2,26.52,5.76Z"/>
  </g>
</svg>