<?xml version="1.0" encoding="UTF-8"?>
<svg id="Layer_2" data-name="Layer 2" xmlns="http://www.w3.org/2000/svg" viewBox="0 0 1901.38 891.87">
  <defs>
    <style>
      .cls-1 {
        fill: #fff;
      }

      .cls-2 {
        fill: #aafff7;
      }

      .cls-3 {
        fill: #0054d4;
      }
    </style>
  </defs>
  <g id="Layer_1-2" data-name="Layer 1">
    <rect x="69.65" y="308.47" width="1822.76" height="525.17" rx="110.88" ry="110.88" transform="translate(-39.19 73.39) rotate(-4.2)"/>
    <rect x="28.34" y="54.35" width="696.28" height="341.96" rx="170.98" ry="170.98" transform="translate(34.51 -49.57) rotate(7.89)"/>
    <rect class="cls-1" x="39.65" y="278.47" width="1822.76" height="525.17" rx="110.88" ry="110.88" transform="translate(-37.07 71.11) rotate(-4.2)"/>
    <g>
      <path d="m330.31,406.41c20.14,10.37,35.69,25.14,46.67,44.31,10.97,19.18,16.46,41.43,16.46,66.75s-5.49,47.45-16.46,66.38c-10.98,18.94-26.53,33.59-46.67,43.96-20.14,10.37-43.47,15.55-70.01,15.55h-88.27v-252.52h88.27c26.53,0,49.87,5.2,70.01,15.56Zm-10.31,172.2c14.47-14.48,21.71-34.85,21.71-61.14s-7.24-46.85-21.71-61.69c-14.48-14.83-34.98-22.25-61.5-22.25h-35.81v166.77h35.81c26.52,0,47.02-7.23,61.5-21.7Z"/>
      <path d="m616.29,558.35h-146.51c1.2,14.47,6.27,25.81,15.19,34,8.92,8.21,19.9,12.3,32.92,12.3,18.81,0,32.2-8.07,40.15-24.24h54.63c-5.79,19.3-16.88,35.15-33.28,47.57-16.4,12.43-36.54,18.63-60.41,18.63-19.3,0-36.6-4.28-51.91-12.84-15.32-8.56-27.26-20.68-35.82-36.36-8.56-15.67-12.84-33.76-12.84-54.27s4.22-38.95,12.66-54.62c8.44-15.67,20.26-27.73,35.45-36.18,15.2-8.43,32.68-12.65,52.46-12.65s36.11,4.1,51.19,12.3c15.07,8.2,26.77,19.84,35.09,34.91,8.32,15.07,12.49,32.37,12.49,51.91,0,7.24-.49,13.75-1.45,19.54Zm-51.01-34.01c-.24-13.03-4.95-23.46-14.1-31.29-9.17-7.84-20.39-11.76-33.65-11.76-12.54,0-23.09,3.8-31.66,11.4-8.56,7.6-13.81,18.15-15.73,31.66h95.14Z"/>
      <path d="m687.19,637.76c-13.03-5.9-23.34-13.93-30.93-24.06-7.6-10.12-11.76-21.35-12.48-33.65h51c.97,7.73,4.76,14.11,11.4,19.18,6.63,5.07,14.88,7.6,24.78,7.6s17.19-1.92,22.61-5.79c5.43-3.85,8.14-8.8,8.14-14.83,0-6.52-3.32-11.4-9.95-14.65-6.64-3.25-17.19-6.81-31.66-10.67-14.96-3.62-27.19-7.35-36.72-11.21-9.53-3.86-17.72-9.77-24.6-17.73-6.87-7.96-10.31-18.69-10.31-32.2,0-11.09,3.2-21.22,9.59-30.39,6.39-9.16,15.55-16.39,27.49-21.7,11.94-5.31,25.99-7.96,42.14-7.96,23.87,0,42.92,5.97,57.16,17.91,14.23,11.94,22.07,28.03,23.52,48.29h-48.48c-.73-7.96-4.03-14.29-9.95-18.98-5.91-4.7-13.81-7.06-23.69-7.06-9.18,0-16.22,1.69-21.17,5.07-4.95,3.37-7.42,8.08-7.42,14.1,0,6.76,3.37,11.88,10.13,15.38,6.75,3.5,17.24,7.06,31.47,10.67,14.48,3.62,26.41,7.35,35.82,11.21,9.4,3.86,17.54,9.83,24.41,17.91,6.88,8.09,10.43,18.76,10.67,32.02,0,11.57-3.2,21.95-9.59,31.11-6.4,9.18-15.55,16.34-27.49,21.53-11.94,5.18-25.87,7.77-41.79,7.77s-31.11-2.96-44.13-8.86Z"/>
      <path d="m855.23,410.57c-5.91-5.66-8.87-12.72-8.87-21.16s2.96-15.5,8.87-21.17c5.9-5.66,13.32-8.5,22.25-8.5s16.33,2.84,22.25,8.5c5.9,5.67,8.86,12.73,8.86,21.17s-2.96,15.5-8.86,21.16c-5.91,5.67-13.33,8.51-22.25,8.51s-16.34-2.84-22.25-8.51Zm47.21,32.38v200.42h-50.65v-200.42h50.65Z"/>
      <path d="m1070.3,448.55c11.33,5.91,20.26,13.56,26.78,22.97v-28.58h51v201.87c0,18.57-3.74,35.14-11.21,49.74-7.47,14.59-18.7,26.16-33.65,34.73-14.96,8.55-33.04,12.84-54.27,12.84-28.46,0-51.79-6.64-70-19.9-18.21-13.27-28.52-31.36-30.93-54.27h50.29c2.65,9.17,8.38,16.47,17.18,21.89,8.8,5.43,19.48,8.14,32.02,8.14,14.71,0,26.65-4.41,35.81-13.21,9.17-8.8,13.75-22.13,13.75-39.97v-31.12c-6.52,9.41-15.5,17.25-26.95,23.51-11.46,6.28-24.54,9.41-39.25,9.41-16.88,0-32.33-4.34-46.31-13.03-13.99-8.68-25.03-20.92-33.1-36.71-8.09-15.8-12.12-33.94-12.12-54.44s4.03-38.23,12.12-53.9c8.07-15.67,19.05-27.73,32.92-36.18,13.86-8.43,29.36-12.65,46.49-12.65,14.95,0,28.1,2.96,39.43,8.86Zm19.53,62.95c-4.83-8.8-11.33-15.56-19.53-20.26-8.2-4.7-17-7.06-26.4-7.06s-18.09,2.3-26.05,6.87c-7.96,4.58-14.41,11.28-19.36,20.08-4.95,8.8-7.41,19.24-7.41,31.29s2.46,22.61,7.41,31.65c4.95,9.05,11.45,15.98,19.53,20.81s16.7,7.23,25.87,7.23,18.2-2.35,26.4-7.06c8.2-4.7,14.71-11.45,19.53-20.26,4.83-8.8,7.24-19.36,7.24-31.66s-2.42-22.84-7.24-31.65Z"/>
      <path d="m1366.59,462.66c14.71,15.08,22.06,36.13,22.06,63.14v117.57h-50.64v-110.7c0-15.92-3.98-28.16-11.94-36.72-7.96-8.55-18.82-12.84-32.56-12.84s-25.03,4.29-33.11,12.84c-8.08,8.56-12.11,20.81-12.11,36.72v110.7h-50.65v-200.42h50.65v24.96c6.75-8.68,15.37-15.5,25.86-20.44,10.49-4.94,22.01-7.42,34.55-7.42,23.87,0,43.17,7.55,57.88,22.61Z"/>
      <path d="m1621.64,558.35h-146.51c1.2,14.47,6.27,25.81,15.19,34,8.92,8.21,19.9,12.3,32.92,12.3,18.81,0,32.2-8.07,40.15-24.24h54.63c-5.79,19.3-16.88,35.15-33.28,47.57-16.4,12.43-36.54,18.63-60.41,18.63-19.3,0-36.6-4.28-51.91-12.84-15.32-8.56-27.26-20.68-35.82-36.36-8.56-15.67-12.84-33.76-12.84-54.27s4.22-38.95,12.66-54.62c8.44-15.67,20.26-27.73,35.45-36.18,15.2-8.43,32.68-12.65,52.46-12.65s36.11,4.1,51.19,12.3c15.07,8.2,26.77,19.84,35.09,34.91,8.32,15.07,12.49,32.37,12.49,51.91,0,7.24-.49,13.75-1.45,19.54Zm-51.01-34.01c-.24-13.03-4.95-23.46-14.1-31.29-9.17-7.84-20.39-11.76-33.65-11.76-12.54,0-23.09,3.8-31.66,11.4-8.56,7.6-13.81,18.15-15.73,31.66h95.14Z"/>
      <path d="m1736.13,449.09c10.49-6.02,22.49-9.05,36-9.05v53.19h-13.39c-15.92,0-27.92,3.74-36,11.21s-12.11,20.5-12.11,39.07v99.85h-50.65v-200.42h50.65v31.11c6.51-10.61,15.01-18.93,25.5-24.96Z"/>
    </g>
    <rect class="cls-2" x="-1.66" y="24.35" width="696.28" height="341.96" rx="170.98" ry="170.98" transform="translate(30.11 -45.73) rotate(7.89)"/>
    <g>
      <path class="cls-3" d="m272.96,53.3l-30.59,157.34c-3.64,18.71-1.45,33.73,6.53,45.13,7.98,11.36,20.73,18.76,38.27,22.16,17.74,3.44,32.45,1.39,44.12-6.15,11.66-7.57,19.32-20.7,22.96-39.4l30.57-157.33,40.48,7.87-30.44,156.62c-3.9,20.14-11.62,36.31-23.08,48.59-11.49,12.27-25.23,20.4-41.24,24.41-16.01,4.02-32.89,4.28-50.65.84-17.76-3.46-33.25-10.02-46.47-19.73-13.24-9.69-22.76-22.35-28.56-37.97-5.8-15.64-6.75-33.49-2.84-53.63l30.44-156.62,40.5,7.87Z"/>
      <path class="cls-3" d="m518.34,101.01l-47.97,246.8-40.5-7.87,47.97-246.82,40.5,7.88Z"/>
    </g>
  </g>
</svg>