<?xml version="1.0" encoding="utf-8"?>
<!-- Generator: Adobe Illustrator 27.4.1, SVG Export Plug-In . SVG Version: 6.00 Build 0)  -->
<svg version="1.1" id="Layer_2_00000157986843008931702000000004853536204405876110_"
	 xmlns="http://www.w3.org/2000/svg" xmlns:xlink="http://www.w3.org/1999/xlink" x="0px" y="0px" viewBox="0 0 1920.5 1080.5"
	 style="enable-background:new 0 0 1920.5 1080.5;" xml:space="preserve">
<style type="text/css">
	.st0{fill:#F2F1EB;}
	.st1{fill:#AFC8AD;}
	.st2{fill:#EEE7DA;}
	.st3{fill:#FFFFFF;}
	.st4{fill:#88AB8E;}
	.st5{fill:#779E7D;}
	.st6{fill:#DDD3C5;}
</style>
<rect x="0.5" y="0.5" class="st0" width="1919.5" height="551.5"/>
<path class="st1" d="M0,509c393.6-40.4,577-57.5,970.5-57.3c364.9,0.2,584.6,10.7,949.5,45.9l0.5,583H0.5L0,509z"/>
<polygon class="st2" points="348.3,807.4 422.5,842.8 493.4,796.6 475.1,387.2 348.3,387.2 "/>
<polygon class="st2" points="1173.7,559.2 1225.2,575.3 1276.8,549.5 1276.8,285.1 1173.7,272.2 "/>
<polygon class="st2" points="536.4,774.1 545,895.5 603,895.5 653.5,982.5 914.7,982.5 971.6,847.2 1001.7,842.8 995.3,783.8 
	950.1,784.8 884.6,910.5 672.9,906.2 623.5,825.7 622.4,781.6 "/>
<polygon class="st2" points="1470.7,1080 1501.4,830 1651.2,721.8 1635.9,473.1 1671.3,475.8 1672.6,761.9 1538.1,866.6 
	1525.3,1080 "/>
<path class="st3" d="M536.4,774.1l11.1-77.4c0,0,29.4,1.1,29.7,0s6.5-20.1,6.5-20.1l73.1,3.9v-73.4l285.8,17.2l6.5,64.5
	c0,0,46.2,4.7,46.6,5.7s-0.4,89.2-0.4,89.2H982l1.1-81l-46.2-4.3l-3.6-62.3l-266.1-17.9l-1.8,69.1l-72.4,0.7l-7.2,16.5l-30.8-0.7
	l-10.8,70.9L536.4,774.1L536.4,774.1z"/>
<polygon class="st3" points="0.5,74.8 64.6,74.8 68.6,49.8 166.4,49.8 176.8,86.7 240.5,91.7 235.5,135.8 176.4,137.9 169.6,166.9 
	32.4,164 24.9,120 0,121.8 "/>
<polygon class="st3" points="510.9,43.6 513.7,79.9 626.4,79.9 629.5,97.1 675.2,97.1 670.6,40 "/>
<path class="st3" d="M632.6,0c0.5,1.6,0.5,14.3,0.5,14.3l89.7,3.2V40l246.6,2.8V13.5h48.4V0H632.6L632.6,0z"/>
<polygon class="st3" points="1356.7,39.4 1356.7,97.4 1448,101.4 1455.2,145.1 1630.4,140 1630.4,92.2 1687,87 1684.1,35.1 
	1476.3,37.6 1475.3,22.5 1356.7,22.5 "/>
<path class="st4" d="M159.2,347.5l81.3-15V127.2l90.1-15.6V54.1l100.5-4.4l5.9,53.8l73.9,3.8l20.7,184.8l81.7-3.8l15.6,132.2
	c0,0-460.9,58.9-461.5,55.9S159.2,347.5,159.2,347.5L159.2,347.5z"/>
<polygon class="st4" points="992,293 1392.9,314.1 1396.8,213.5 1310.1,209.2 1308.7,123.6 1276.8,121.8 1279,88.1 1160,88.1 
	1150.4,123.9 1085.5,121.1 1074.8,208.8 996,212 "/>
<polygon class="st5" points="348.3,53.4 353.4,142.6 272.5,158.4 272.5,349 203,387.2 208.1,472.7 167.3,476.5 159.2,347.5 
	240.5,332.5 240.5,127.2 330.6,111.6 330.6,54.1 "/>
<polygon class="st5" points="1189.5,88.1 1178.7,144.8 1110.7,144.8 1096,230.4 1017.8,233.3 1008.6,293.9 992,293 996,212 
	1074.8,208.8 1085.5,121.1 1150.4,123.9 1160,88.1 "/>
<polygon class="st6" points="422.5,842.8 415.5,447.5 348.3,455.9 348.3,807.4 "/>
<polygon class="st6" points="672.9,906.2 653.5,982.5 603,895.5 545,895.5 536.4,774.1 622.4,781.6 623.5,825.7 "/>
<polygon class="st6" points="1225.2,305.3 1225.2,575.3 1173.7,559.2 1173.7,302.6 "/>
</svg>
