<?xml version="1.0" encoding="UTF-8"?>
<svg id="Layer_2" data-name="Layer 2" xmlns="http://www.w3.org/2000/svg" viewBox="0 0 1920.5 1080.5">
  <defs>
    <style>
      .cls-1 {
        fill: #fff;
      }

      .cls-2 {
        fill: #b77350;
      }

      .cls-3 {
        fill: #76eefe;
      }

      .cls-4 {
        fill: #39a350;
      }
    </style>
  </defs>
  <rect class="cls-3" x=".5" y=".5" width="1919.5" height="551.49"/>
  <path class="cls-4" d="m0,509c393.56-40.36,577.01-57.55,970.55-57.31,364.9.22,584.56,10.73,949.45,45.85l.5,582.96H.5L0,509Z"/>
  <polygon class="cls-2" points="348.34 807.39 422.49 842.85 493.42 796.64 475.15 387.21 348.34 387.21 348.34 807.39"/>
  <polygon class="cls-2" points="1173.66 559.15 1225.24 575.27 1276.82 549.48 1276.82 285.12 1173.66 272.22 1173.66 559.15"/>
  <polygon class="cls-2" points="536.4 774.07 545 895.51 603.03 895.51 653.54 982.55 914.67 982.55 971.63 847.15 1001.72 842.85 995.27 783.75 950.13 784.82 884.58 910.55 672.88 906.25 623.45 825.66 622.37 781.6 536.4 774.07"/>
  <polygon class="cls-2" points="1470.73 1080 1501.42 829.96 1651.15 721.78 1635.86 473.11 1671.33 475.81 1672.64 761.9 1538.13 866.63 1525.33 1080 1470.73 1080"/>
  <path class="cls-1" d="m536.4,774.07l11.1-77.37s29.37,1.07,29.73,0,6.45-20.06,6.45-20.06l73.07,3.94v-73.43l285.85,17.19,6.45,64.48s46.21,4.66,46.57,5.73-.36,89.19-.36,89.19h-13.25l1.07-80.96-46.21-4.3-3.58-62.33-266.15-17.91-1.79,69.13-72.36.72-7.16,16.48-30.81-.72-10.78,70.9-7.85-.69Z"/>
  <polygon class="cls-1" points=".5 74.85 64.64 74.85 68.58 49.78 166.37 49.78 176.76 86.67 240.52 91.69 235.51 135.75 176.4 137.9 169.6 166.91 32.4 164.04 24.88 119.99 0 121.78 .5 74.85"/>
  <polygon class="cls-1" points="510.85 43.57 513.72 79.87 626.43 79.87 629.54 97.06 675.15 97.06 670.61 39.99 510.85 43.57"/>
  <path class="cls-1" d="m632.64,0c.54,1.61.48,14.31.48,14.31l89.73,3.22v22.45l246.63,2.81V13.51h48.36V0h-385.19Z"/>
  <polygon class="cls-1" points="1356.7 39.39 1356.7 97.42 1448.04 101.36 1455.21 145.06 1630.37 140.04 1630.37 92.22 1686.97 87.03 1684.1 35.09 1476.34 37.6 1475.27 22.55 1356.7 22.55 1356.7 39.39"/>
  <path class="cls-4" d="m159.21,347.51l81.31-15.04V127.21l90.09-15.58v-57.49l100.48-4.36,5.91,53.79,73.85,3.76,20.72,184.84,81.67-3.76,15.58,132.18s-460.87,58.93-461.55,55.88-8.06-128.96-8.06-128.96Z"/>
  <polygon class="cls-4" points="992.04 293 1392.88 314.13 1396.82 213.48 1310.13 209.18 1308.7 123.57 1276.82 121.78 1278.97 88.1 1160.04 88.1 1150.37 123.93 1085.54 121.06 1074.79 208.82 995.99 212.04 992.04 293"/>
</svg>