<?xml version="1.0" encoding="utf-8"?>
<!-- Generator: Adobe Illustrator 28.2.0, SVG Export Plug-In . SVG Version: 6.00 Build 0)  -->
<svg version="1.1" xmlns="http://www.w3.org/2000/svg" xmlns:xlink="http://www.w3.org/1999/xlink" x="0px" y="0px"
	 viewBox="0 0 1921.7 1080.5" style="enable-background:new 0 0 1921.7 1080.5;" xml:space="preserve">
<style type="text/css">
	.st0{fill:#F2F1EB;}
	.st1{fill:#AFC8AD;}
	.st2{fill:#ADADAD;}
	.st3{fill:none;stroke:#88AB8E;stroke-width:15;stroke-miterlimit:10;}
	.st4{fill:#EEE7DA;}
	.st5{fill:#DDD3C5;}
	.st6{fill:none;stroke:#ADADAD;stroke-width:20;stroke-miterlimit:10;}
	.st7{fill:none;stroke:#DDD3C5;stroke-width:25;stroke-miterlimit:10;}
	.st8{fill:none;stroke:#DDD3C5;stroke-width:15;stroke-miterlimit:10;}
</style>
<g id="Layer_2">
	<rect x="-1" class="st0" width="1921.1" height="1080.5"/>
	<path class="st1" d="M177.7-120.8C127-55.2,143.9,74,207.3,138.2c96.4,97.4,242.3,26.4,343.1,128.1
		c83.8,84.4,39.9,196.9,37.7,206.9C565,579.3,459.1,600.3,418,634c-515.8,420.7-559.6,561.9-544.2,604.8
		c16.1,44.6,150.2,33.2,171.4,31.4c818-68.5,1992.4,112.1,2009-40.8c2.5-23.4,22.2-60.2-77.6-149
		c-73.8-65.5-207.2-153.2-297.9-287.1c-95.5-141-105.8-176.8-207.4-355.1c-52.1-91.5-80.6-188.9-173-276.4
		c-29.2-27.6-153-137.8-456.7-234.7C561.5-162.1,266.6-235.8,177.7-120.8z"/>
	<path class="st0" d="M230.1-95C183.5-35.1,199,82.8,257.3,141.4c88.6,88.9,232.5-2.5,325.2,90.3c77,77,49.3,211.6,47.3,220.7
		c-21.3,96.9-94,155.6-131.8,186.3c-474.2,384-561.5,468-547.3,507.2c14.8,40.7,138.1,30.3,157.6,28.7
		c752-62.5,1831.7,102.3,1846.9-37.2c2.3-21.4-22.8-27.8-114.6-108.9c-67.8-59.8-183.1-167.2-266.5-289.4
		c-87.8-128.7-61.4-161.1-154.8-323.8c-47.9-83.5-99.8-170.9-184.8-250.8c-26.8-25.2-122-110.8-401.2-199.2
		C575.8-116.3,311.8-200,230.1-95z"/>
	<polygon class="st2" points="835.1,931.7 1051.6,934.2 1047.7,968.5 1018.2,1005.2 872.5,1003.7 840.9,977.5 	"/>
	<line class="st3" x1="846.2" y1="931.7" x2="1027.7" y2="931.7"/>
	<path class="st3" d="M946,1008.1c-0.5-1.9,0-76.4,0-76.4"/>
	<polyline class="st3" points="859.1,995.2 874.9,1005.2 1022.5,1005.2 1051.8,962.5 	"/>
	<path class="st2" d="M818,836.6c-11.1,6.5-15.8,16.7-18.4,22.7c-6.9,15.6-14.7,50.6,8.1,69.7c18.3,15.3,49,14.3,63-0.5
		c4.5-4.8,6-9.6,8.8-18.8c3.1-10.2,11.7-38.8-4.3-60.5c-2.8-3.8-8.2-9.8-16.7-13.8C857.6,834.9,836.9,825.5,818,836.6L818,836.6z"/>
	<path class="st2" d="M762.4,954.3c2.8-5.5,8.2-15.8,19.6-24.1c21.8-15.9,56.2-18.2,74-1.4c5.1,4.8,7.2,9.7,11.2,19.3
		c6.2,15.1,22.4,54,2.4,85.3c-8.3,13-19.5,19.4-24.1,22c-4.8,2.7-28.8,16-52.8,6c-14-5.8-21.2-16.8-25.5-23.4
		C751.4,1014.1,748.9,980.9,762.4,954.3L762.4,954.3z"/>
	<path class="st2" d="M1001.7,865c2.3-7.9,5.7-19.3,16.2-28.2c17.1-14.5,44.7-15.4,62.6-2.6c9.7,6.9,13.9,16,17.2,22.9
		c2.9,6.3,11.8,25.1,4.8,47c-1.4,4.4-6.3,19.2-21.2,29.4c-17,11.6-41.5,13.3-59,1.7c-9.9-6.6-14.5-15.5-17-20.3
		C993.8,892.7,1000,870.6,1001.7,865L1001.7,865z"/>
	<path class="st2" d="M1131.6,959.1c-3.7-8.9-9.7-23.3-25.3-31.5c-14.8-7.8-34.3-7.9-49,1.4c-11.7,7.5-16.2,18.4-20.8,29.8
		c-4.1,10.2-17.6,43.6,0,71.6c3,4.8,10.9,15.7,25.3,22c3,1.3,26.2,11,47.3-1.4c15.6-9.2,20.5-24.8,24.1-36.5
		C1135.3,1008,1142.2,984.7,1131.6,959.1L1131.6,959.1z"/>
	<path class="st1" d="M884.4,831.1c-7.4,4.7-20.5,13.1-20.1,24.8c0.4,10,10.3,16.9,13.4,18.9c-1.8,3.9-4.6,11.5-3.4,20.8
		c1.7,12.1,9.3,19.8,12.7,23.2c27.4,27.5,107.9,19,115.3-6c0.6-2.1-0.2-1.2-1.9-27.9c-1.1-17.4-1-20.9,0.5-25.5
		c1.2-3.7,2.7-6.6,2.4-11.2c0,0-0.4-6.6-5.7-13.1C987.2,822.2,928.8,802.8,884.4,831.1L884.4,831.1z"/>
	<circle class="st4" cx="858.5" cy="934.9" r="29.2"/>
	
		<ellipse transform="matrix(0.1602 -0.9871 0.9871 0.1602 -41.7852 1814.3376)" class="st4" cx="1045.4" cy="931.7" rx="27.2" ry="27.2"/>
	<circle class="st5" cx="858.5" cy="934.2" r="14.9"/>
	<circle class="st5" cx="1047.7" cy="931.7" r="14"/>
	<path class="st6" d="M-50.7,949.6c115.6-77.3,209.5-148.1,279.4-203.5c117.4-92.9,204.6-172,270.8-292.3
		c55.8-101.4,44.5-137.4,34.4-153.3c-20.9-33.1-62.8-21.5-163.3-51.6c-73.2-21.9-137-40.9-176.2-91.7
		c-46.2-59.7-40.3-139.9-30.2-190.6"/>
	<path class="st6" d="M948-43.4c80.9,17.4,200.2,53.7,316.7,139C1421,210,1476.1,341.8,1601.4,535.5
		c73.4,113.5,187.7,274.1,355.3,454.2"/>
	<line class="st7" x1="1721.7" y1="504.3" x2="1721.7" y2="412.4"/>
	<path class="st7" d="M1607.8,412.4c0,0,219,1.9,217.1,0s0-149.7,0-149.7h-217.1V412.4L1607.8,412.4z"/>
	<path class="st8" d="M1698.7,307.3c16.9-1.5,33.3,4.7,41.9,17.2c12.5,18.1,7.3,47.9-16.1,65"/>
	<polyline class="st8" points="1710.2,332 1696.2,307.1 1719.6,286.5 	"/>
	<path class="st4" d="M714.3,368.5h610.5c6.1,0,11,4.9,11,11v66.1c0,6.1-4.9,11-11,11H714.3c-6.1,0-11-4.9-11-11v-66.1
		C703.3,373.4,708.2,368.5,714.3,368.5z"/>
	<polyline class="st5" points="732,439.3 838.2,383.4 929.5,439.3 	"/>
	<polyline class="st5" points="1129.4,439.3 1211.6,383.4 1294,439.3 	"/>
	<path class="st5" d="M928.4,691.9c-11.9-7.6-16.9-13.4-25.1-11.9c-8.4,1.5-8.8,8.6-24.6,15.8c-2.2,1-7.3,3.2-13.8,7.2
		c-5.3,3.2-8.5,5.7-9.8,9.8c-0.3,1-1.4,4.3,0.2,6.2c2.7,3.2,11.4,0.1,11.5,0.5c0.1,0.3-8.6,0.8-11,5.7c-1.6,3.3,0.2,7.3,0.5,7.9
		c1.2,2.8,2.8,3.3,4.5,5.5c2.5,3.2,2.6,6.5,3.1,11.9c0,0,0.7,7.5,1.9,17.4c1.5,11.9,4.9,11.7,8.4,27.2c3.3,15,1,19,0.2,20.3
		c-2.4,3.8-5,3.5-8.6,8.8c-1.4,2-5.9,8.8-3.3,13.1c2,3.4,7.5,3.6,8.4,3.6c7.2,0.2,10.9-5.3,13.6-3.6c2.5,1.6,0,7,2.9,9.1
		c2.8,2,6.6-2.1,9.8-0.2c3.7,2.1,0.9,9,4.5,11.7c3.9,2.9,9.4-3.6,15-1.2c6.2,2.7,4.2,12.5,10,14.6c5,1.8,8.3-4.8,16.2-3.3
		c4.3,0.8,6.2,3.3,8.6,2.2c3.1-1.5,1.5-6.2,4.3-8.1c4.8-3.3,14.7,6.6,18.6,3.6c2.7-2.1-0.2-8.1,3.3-10.8c2-1.5,3.9-0.3,5.2-1.9
		c2.1-2.5-1.3-6.6,0.2-8.8c2.6-3.9,15.3,4.6,20.8,0.5c3.5-2.7,2-9.2-2.6-34.2c-4.2-22.3-4.4-24.7-4.3-28.4c0.5-15.6,6.2-18.5,6-29.8
		c-0.3-18-14.7-31.4-18.4-34.9C967.6,701.2,957.3,710.2,928.4,691.9L928.4,691.9z"/>
</g>
<g id="Calque_2">
</g>
</svg>
