<?xml version="1.0" encoding="utf-8"?>
<!-- Generator: Adobe Illustrator 27.4.1, SVG Export Plug-In . SVG Version: 6.00 Build 0)  -->
<svg version="1.1" id="Layer_2_00000083049137102917417910000013941033765765685906_"
	 xmlns="http://www.w3.org/2000/svg" xmlns:xlink="http://www.w3.org/1999/xlink" x="0px" y="0px" viewBox="0 0 1920 1080"
	 style="enable-background:new 0 0 1920 1080;" xml:space="preserve">
<style type="text/css">
	.st0{fill:#FFFFFF;stroke:#000000;stroke-miterlimit:10;}
	.st1{fill:none;}
	.st2{fill:#E1E4E5;}
	.st3{fill:#43333E;}
	.st4{fill:none;stroke:#36494C;stroke-width:15;stroke-miterlimit:10;}
	.st5{fill:#667D82;}
	.st6{fill:#FF5FA9;}
	.st7{fill:#FF8E3E;}
	.st8{fill:#F9103D;}
	.st9{fill:none;stroke:#47B25E;stroke-width:50;stroke-miterlimit:10;}
	.st10{fill:none;stroke:#77EAFE;stroke-width:30;stroke-miterlimit:10;}
	.st11{fill:none;stroke:#000000;stroke-width:20;stroke-miterlimit:10;}
	.st12{fill:none;stroke:#000000;stroke-width:13;stroke-miterlimit:10;}
	.st13{fill:none;stroke:#1C4AC0;stroke-width:25;stroke-miterlimit:10;}
	.st14{fill:none;stroke:#1C4AC0;stroke-width:15;stroke-miterlimit:10;}
	.st15{fill:#FBFF5F;}
	.st16{fill:none;stroke:#F93030;stroke-width:7;stroke-miterlimit:10;}
	.st17{fill:#A3583E;}
</style>
<rect class="st0" width="1920" height="1080"/>
<g id="Layer_2-2">
	<rect x="6.6" y="5.1" class="st1" width="1920" height="1080"/>
	<g>
		<path class="st2" d="M233.5-96.3c-46.6,59.9-31.1,177.8,27.2,236.4c88.6,88.9,232.5-2.5,325.2,90.3c77,77,49.3,211.6,47.3,220.7
			c-21.3,96.9-94,155.6-131.8,186.3c-474.2,384-561.5,468-547.3,507.2c14.8,40.7,138.1,30.3,157.6,28.7
			c752-62.5,1831.7,102.3,1846.9-37.2c2.3-21.4-22.8-27.8-114.6-108.9c-67.8-59.8-183.1-167.2-266.5-289.4
			c-87.8-128.7-61.4-161.1-154.8-323.8c-47.9-83.5-99.8-170.9-184.8-250.8c-26.8-25.2-122-110.8-401.2-199.2
			C579.2-117.6,315.2-201.3,233.5-96.3z"/>
		<polygon class="st3" points="838.5,930.4 1055,932.9 1051.1,967.2 1021.6,1003.9 875.9,1002.4 844.3,976.2 		"/>
		<line class="st4" x1="849.6" y1="930.4" x2="1031.1" y2="930.4"/>
		<path class="st4" d="M949.4,1006.8c-0.5-1.9,0-76.4,0-76.4"/>
		<polyline class="st4" points="862.5,993.9 878.3,1003.9 1025.9,1003.9 1055.2,961.2 		"/>
		<path class="st5" d="M821.4,835.3c-11.1,6.5-15.8,16.7-18.4,22.7c-6.9,15.6-14.7,50.6,8.1,69.7c18.3,15.3,49,14.3,63-0.5
			c4.5-4.8,6-9.6,8.8-18.8c3.1-10.2,11.7-38.8-4.3-60.5c-2.8-3.8-8.2-9.8-16.7-13.8C861,833.6,840.3,824.2,821.4,835.3L821.4,835.3z
			"/>
		<path class="st5" d="M765.8,953c2.8-5.5,8.2-15.8,19.6-24.1c21.8-15.9,56.2-18.2,74-1.4c5.1,4.8,7.2,9.7,11.2,19.3
			c6.2,15.1,22.4,54,2.4,85.3c-8.3,13-19.5,19.4-24.1,22c-4.8,2.7-28.8,16-52.8,6c-14-5.8-21.2-16.8-25.5-23.4
			C754.8,1012.8,752.3,979.6,765.8,953L765.8,953z"/>
		<path class="st5" d="M1005.1,863.7c2.3-7.9,5.7-19.3,16.2-28.2c17.1-14.5,44.7-15.4,62.6-2.6c9.7,6.9,13.9,16,17.2,22.9
			c2.9,6.3,11.8,25.1,4.8,47c-1.4,4.4-6.3,19.2-21.2,29.4c-17,11.6-41.5,13.3-59,1.7c-9.9-6.6-14.5-15.5-17-20.3
			C997.2,891.4,1003.4,869.3,1005.1,863.7L1005.1,863.7z"/>
		<path class="st5" d="M1158.9,957.8c-3.7-8.9-9.7-23.3-25.3-31.5c-14.8-7.8-34.3-7.9-49,1.4c-11.7,7.5-16.2,18.4-20.8,29.8
			c-4.1,10.2-17.6,43.6,0,71.6c3,4.8,10.9,15.7,25.3,22c3,1.3,26.2,11,47.3-1.4c15.6-9.2,20.5-24.8,24.1-36.5
			C1162.6,1006.7,1169.5,983.4,1158.9,957.8L1158.9,957.8z"/>
		<path class="st6" d="M887.8,829.8c-7.4,4.7-20.5,13.1-20.1,24.8c0.4,10,10.3,16.9,13.4,18.9c-1.8,3.9-4.6,11.5-3.4,20.8
			c1.7,12.1,9.3,19.8,12.7,23.2c27.4,27.5,107.9,19,115.3-6c0.6-2.1-0.2-1.2-1.9-27.9c-1.1-17.4-1-20.9,0.5-25.5
			c1.2-3.7,2.7-6.6,2.4-11.2c0,0-0.4-6.6-5.7-13.1C990.6,820.9,932.2,801.5,887.8,829.8L887.8,829.8z"/>
		<circle class="st7" cx="861.9" cy="933.6" r="29.2"/>
		<circle class="st7" cx="1048.8" cy="930.4" r="27.2"/>
		<circle class="st8" cx="861.9" cy="932.9" r="14.9"/>
		<circle class="st8" cx="1051.1" cy="930.4" r="14"/>
		<path class="st9" d="M-44.5,1101.6c68.3-52.8,380.9-296.2,570.3-513c43.5-49.8,114.9-137.6,106-243.6c-2-24-6-71.3-40.1-98.9
			c-45.5-36.7-95.6,0.9-202-21.5c-35.7-7.5-85.3-18-124.7-54.5c-70.4-65.3-63.1-172.7-60.2-202"/>
		<path class="st9" d="M464.2-34.7C479.9-19,505,1.6,540.1,12.6C635.2,42.3,658.3,15.8,735-7.4c189.9-57.4,469.2,113.9,531.6,173.4
			c180.9,172.4,157.5,295.4,323.8,550.2c118.4,181.4,256.3,312,374,404.1"/>
		<path class="st10" d="M-24.4,1128.8c212.1-146.2,458.5-395.5,587.4-523c51.4-50.8,147.1-215.2,91.7-315.2
			c-27.9-50.4-66.6-84.6-131.8-93.1c-75.9-9.9-140,0.1-194.9-22.9c-78.1-32.8-86.2-107-88.8-118.9c-9.3-42.6-4.5-78.8,0-100.3"/>
		<path class="st10" d="M444.1-20.3c35.4,24.8,89.6,55,159,63c89.9,10.4,119.9-15.5,174.9-29.8c190.3-49.4,395.5,99.8,518.6,229
			c134.7,141.3,113.4,232.3,223.5,437c67.4,125.2,187.7,260.8,409.8,438.5"/>
		<path class="st11" d="M-47.3,948.3c115.6-77.3,209.5-148.1,279.4-203.5c117.4-92.9,204.6-172,270.8-292.3
			c55.8-101.4,44.5-137.4,34.4-153.3c-20.9-33.1-62.8-21.5-163.3-51.6c-73.2-21.9-137-40.9-176.2-91.7
			C151.6,96.2,157.5,16,167.6-34.7"/>
		<path class="st11" d="M951.4-44.7c80.9,17.4,200.2,53.7,316.7,139c156.3,114.4,211.4,246.2,336.7,439.9
			c73.4,113.5,187.7,274.1,355.3,454.2"/>
		<line class="st12" x1="-6.3" y1="1013" x2="11.2" y2="928"/>
		<line class="st12" x1="22.2" y1="988.6" x2="42.7" y2="912.7"/>
		<path class="st12" d="M62.3,956.9c1-1.2,21.7-78.3,21.7-78.3"/>
		<line class="st12" x1="103.8" y1="921.5" x2="122.2" y2="851.1"/>
		<line class="st12" x1="143" y1="895.7" x2="167.4" y2="818.4"/>
		<line class="st12" x1="196" y1="848.4" x2="215.6" y2="776.6"/>
		<line class="st12" x1="250.7" y1="809.5" x2="273.1" y2="733.3"/>
		<line class="st12" x1="305.5" y1="763.4" x2="326.3" y2="692.9"/>
		<line class="st12" x1="360.8" y1="714.2" x2="384.1" y2="632.5"/>
		<path class="st12" d="M411.5,665.6c-0.2-0.7,27.8-90.6,27.8-90.6"/>
		<path class="st12" d="M474.9,581.3c0.2-1.6,20.8-89,20.8-89"/>
		<path class="st12" d="M529.4,522c0-0.5,12.9-111.8,12.9-111.8"/>
		<path class="st12" d="M588.1,418.5c-0.2-1.1-22.9-102.6-22.9-102.6"/>
		<line class="st12" x1="564.1" y1="265" x2="543.7" y2="282.4"/>
		<line class="st12" x1="1923.5" y1="985.2" x2="1908.5" y2="1031"/>
		<line class="st12" x1="1871.6" y1="929.6" x2="1859.8" y2="982.3"/>
		<line class="st12" x1="1840.8" y1="880.6" x2="1823.6" y2="950.4"/>
		<line class="st12" x1="1795.7" y1="827.5" x2="1782" y2="908.9"/>
		<path class="st12" d="M1752.3,776.7c0,0-14.3,83.8-14.7,82.4"/>
		<line class="st12" x1="1706.8" y1="719.4" x2="1682.1" y2="792.1"/>
		<line class="st12" x1="1673.5" y1="665.6" x2="1624.8" y2="710.1"/>
		<line class="st12" x1="1634.5" y1="615.8" x2="1587.9" y2="649.5"/>
		<line class="st12" x1="1599.4" y1="557.8" x2="1554.6" y2="589"/>
		<line class="st12" x1="1572.5" y1="509.1" x2="1524.8" y2="540.3"/>
		<line class="st12" x1="1526.2" y1="436.7" x2="1489.9" y2="453.2"/>
		<line class="st12" x1="1485.3" y1="368.2" x2="1455.7" y2="384.7"/>
		<path class="st12" d="M1461.7,327.1c-0.7,0-28.7,13.6-28.7,13.6"/>
		<path class="st12" d="M1435.7,290.6c-0.7,0-22.2,10.3-22.2,10.3"/>
		<line class="st12" x1="1410.3" y1="252.4" x2="1385" y2="261.5"/>
		<line class="st12" x1="1377.1" y1="211.5" x2="1356.6" y2="224.2"/>
		<line class="st12" x1="1314.9" y1="149.8" x2="1301.7" y2="160.6"/>
		<line class="st12" x1="1255.5" y1="101.1" x2="1242.8" y2="111.1"/>
		<line class="st12" x1="1197.6" y1="62.8" x2="1184.4" y2="73.5"/>
		<line class="st12" x1="1129.7" y1="30.5" x2="1122.8" y2="38.2"/>
		<line class="st12" x1="1087.3" y1="10.1" x2="1081.2" y2="18.7"/>
		<line class="st13" x1="1725.1" y1="503" x2="1725.1" y2="411.1"/>
		<path class="st13" d="M1611.2,411.1c0,0,219,1.9,217.1,0s0-149.7,0-149.7h-217.1L1611.2,411.1L1611.2,411.1z"/>
		<path class="st14" d="M1702.1,306c16.9-1.5,33.3,4.7,41.9,17.2c12.5,18.1,7.3,47.9-16.1,65"/>
		<polyline class="st14" points="1713.6,330.7 1699.6,305.8 1723,285.2 		"/>
		<path class="st15" d="M717.7,367.2h610.5c6.1,0,11,4.9,11,11v66.1c0,6.1-4.9,11-11,11H717.7c-6.1,0-11-4.9-11-11v-66.1
			C706.7,372.1,711.6,367.2,717.7,367.2z"/>
		<polyline class="st16" points="735.4,438 841.6,382.1 932.9,438 		"/>
		<polyline class="st16" points="1132.8,438 1215,382.1 1297.4,438 		"/>
		<path class="st17" d="M931.8,690.6c-11.9-7.6-16.9-13.4-25.1-11.9c-8.4,1.5-8.8,8.6-24.6,15.8c-2.2,1-7.3,3.2-13.8,7.2
			c-5.3,3.2-8.5,5.7-9.8,9.8c-0.3,1-1.4,4.3,0.2,6.2c2.7,3.2,11.4,0.1,11.5,0.5c0.1,0.3-8.6,0.8-11,5.7c-1.6,3.3,0.2,7.3,0.5,7.9
			c1.2,2.8,2.8,3.3,4.5,5.5c2.5,3.2,2.6,6.5,3.1,11.9c0,0,0.7,7.5,1.9,17.4c1.5,11.9,4.9,11.7,8.4,27.2c3.3,15,1,19,0.2,20.3
			c-2.4,3.8-5,3.5-8.6,8.8c-1.4,2-5.9,8.8-3.3,13.1c2,3.4,7.5,3.6,8.4,3.6c7.2,0.2,10.9-5.3,13.6-3.6c2.5,1.6,0,7,2.9,9.1
			c2.8,2,6.6-2.1,9.8-0.2c3.7,2.1,0.9,9,4.5,11.7c3.9,2.9,9.4-3.6,15-1.2c6.2,2.7,4.2,12.5,10,14.6c5,1.8,8.3-4.8,16.2-3.3
			c4.3,0.8,6.2,3.3,8.6,2.2c3.1-1.5,1.5-6.2,4.3-8.1c4.8-3.3,14.7,6.6,18.6,3.6c2.7-2.1-0.2-8.1,3.3-10.8c2-1.5,3.9-0.3,5.2-1.9
			c2.1-2.5-1.3-6.6,0.2-8.8c2.6-3.9,15.3,4.6,20.8,0.5c3.5-2.7,2-9.2-2.6-34.2c-4.2-22.3-4.4-24.7-4.3-28.4
			c0.5-15.6,6.2-18.5,6-29.8c-0.3-18-14.7-31.4-18.4-34.9C971,699.9,960.7,708.9,931.8,690.6L931.8,690.6z"/>
	</g>
</g>
</svg>
