<?xml version="1.0" encoding="utf-8"?>
<!-- Generator: Adobe Illustrator 27.4.1, SVG Export Plug-In . SVG Version: 6.00 Build 0)  -->
<svg version="1.1" id="Layer_2_00000083091030163533430310000005857793982488342696_"
	 xmlns="http://www.w3.org/2000/svg" xmlns:xlink="http://www.w3.org/1999/xlink" x="0px" y="0px" viewBox="0 0 1920 1080"
	 style="enable-background:new 0 0 1920 1080;" xml:space="preserve">
<style type="text/css">
	.st0{fill:#F2F1EB;}
	.st1{fill:#EEE7DA;}
	.st2{fill:none;stroke:#88AB8E;stroke-width:20;stroke-miterlimit:10;}
	.st3{fill:#AFC8AD;}
	.st4{fill:#ACB3C6;}
	.st5{fill:#C6ACAC;}
</style>
<rect class="st0" width="1920" height="1080"/>
<rect x="1160.9" y="53.8" class="st1" width="549.9" height="972.3"/>
<rect x="210.1" y="54.3" class="st1" width="549.9" height="972.3"/>
<rect x="206.9" y="54.3" class="st2" width="553.1" height="972.3"/>
<rect x="1160.5" y="54.3" class="st2" width="553.1" height="972.3"/>
<circle class="st3" cx="261.8" cy="978.4" r="22"/>
<circle class="st4" cx="261.8" cy="928.4" r="22"/>
<circle class="st5" cx="261.8" cy="878.4" r="22"/>
<circle class="st3" cx="261.8" cy="828.4" r="22"/>
<circle class="st5" cx="311.8" cy="978.4" r="22"/>
<circle class="st4" cx="311.8" cy="928.4" r="22"/>
<circle class="st5" cx="311.8" cy="878.4" r="22"/>
<circle class="st5" cx="361.8" cy="978.4" r="22"/>
<circle class="st3" cx="361.8" cy="928.4" r="22"/>
<circle class="st3" cx="411.8" cy="978.4" r="22"/>
<circle class="st3" cx="511.8" cy="978.4" r="22"/>
<circle class="st5" cx="1213.8" cy="981.4" r="22"/>
<circle class="st5" cx="1213.8" cy="931.4" r="22"/>
<circle class="st3" cx="1213.8" cy="881.4" r="22"/>
<circle class="st4" cx="1213.8" cy="831.4" r="22"/>
<circle class="st3" cx="1263.8" cy="981.4" r="22"/>
<circle class="st4" cx="1263.8" cy="931.4" r="22"/>
<circle class="st5" cx="1263.8" cy="881.4" r="22"/>
<circle class="st3" cx="1313.8" cy="981.4" r="22"/>
<circle class="st3" cx="1313.8" cy="931.4" r="22"/>
<circle class="st5" cx="1363.8" cy="981.4" r="22"/>
<circle class="st3" cx="1463.8" cy="981.4" r="22"/>
<circle class="st5" cx="1213.8" cy="781.4" r="22"/>
<circle class="st3" cx="1213.8" cy="731.4" r="22"/>
<circle class="st5" cx="1513.8" cy="981.4" r="22"/>
<circle class="st4" cx="1513.8" cy="931.4" r="22"/>
<circle class="st5" cx="1413.8" cy="981.4" r="22"/>
<circle class="st3" cx="1563.8" cy="981.4" r="22"/>
<circle class="st3" cx="1563.8" cy="931.4" r="22"/>
<circle class="st3" cx="1613.8" cy="981.4" r="22"/>
</svg>
