<?xml version="1.0" encoding="UTF-8"?>
<svg id="Layer_2" data-name="Layer 2" xmlns="http://www.w3.org/2000/svg" viewBox="0 0 1921.67 1080.5">
  <defs>
    <style>
      .cls-1 {
        fill: #eee7da;
      }

      .cls-1, .cls-2, .cls-3, .cls-4, .cls-5, .cls-6 {
        stroke-width: 0px;
      }

      .cls-2 {
        fill: #afc8ad;
      }

      .cls-3 {
        fill: #88ab8e;
      }

      .cls-4 {
        fill: #ddd3c5;
      }

      .cls-5 {
        fill: #f2f1eb;
      }

      .cls-6 {
        fill: #adadad;
      }
    </style>
  </defs>
  <polygon class="cls-5" points="1920.5 1080.5 0 1080.5 0 0 1921.67 0 1920.5 1080.5"/>
  <polygon class="cls-2" points="0 326.31 223.76 367.87 524.66 327.03 986.75 343.15 1423.04 294.79 1920.5 359.1 1920.5 1080.5 0 1080.5 0 326.31"/>
  <polygon class="cls-3" points="106.99 540.25 119.88 493.24 139.94 529.06 149.97 493.24 170.03 516.74 187.22 471.75 201.55 521.9 217.31 477.48 230.21 528.7 106.99 540.25"/>
  <polygon class="cls-3" points="1530.51 443.09 1567.04 385.6 1562.75 447.93 1591.22 401.18 1601.97 452.76 1618.09 392.58 1640.12 437.72 1640.12 385.6 1686.33 419.18 1680.96 370.55 1706.75 433.96 1612.18 464.58 1530.51 443.09"/>
  <polygon class="cls-3" points="392.84 1062.07 392.84 1028.4 417.19 1062.07 417.19 1007.63 436.54 1049.9 436.54 1021.24 446.57 1038.43 446.57 986.85 471.64 1042.01 478.09 983.27 501.01 1031.99 501.01 983.27 533.25 1019.09 463.04 1062.07 392.84 1062.07"/>
  <polygon class="cls-3" points="1243.22 844.28 1279.76 784.82 1269.73 844.28 1294.81 800.58 1299.1 861.48 1336.36 797.72 1319.16 861.48 1350.69 819.21 1340.66 870.07 1394.39 831.39 1359.28 900.16 1262.57 868.64 1243.22 844.28"/>
  <path class="cls-1" d="M487.4,380.04s27.94-106.75,19.34-166.21,0-146.87,0-146.87l81.67,12.9s-7.16,109.61,3.58,163.34,32.24,136.84,32.24,136.84c0,0-42.27-8.6-68.42-7.16s-68.42,7.16-68.42,7.16Z"/>
  <path class="cls-1" d="M1255.4,370.55s73.07-40.84,89.73-131.1,24.72-217.07,24.72-217.07l50.51-2.69s-5.91,252.54,0,271.34,9.13,84.9,9.13,84.9c0,0-38.15-10.21-87.04-9.67s-87.04,4.3-87.04,4.3Z"/>
  <path class="cls-4" d="M526.57,80.1l-.83,173.42s11.1,83.1,8.95,85.25-8.95,37.38-8.95,37.38l-41.2,4.89s29.61-105.55,23.64-149.49-6.21-156.18-6.21-156.18l24.6,4.73Z"/>
  <path class="cls-3" d="M289.13,0c10.21,35.46,38.87,28.28,38.87,28.28,0,0,4.3,20.96,22.03,25.25s37.07-5.91,37.07-5.91c0,0,22.03,22.57,36.54,24.18s43.52-9.13,43.52-9.13c0,0,28.48,26.33,45.67,23.64s39.76,20.42,61.79,11.82,27.4-10.75,27.4-10.75c0,0,33.31,22.03,48.36,5.37s18.81-34.93,18.81-34.93c0,0,47.82,9.67,66.09-15.04S756.23,0,756.23,0"/>
  <polygon class="cls-4" points="1255.4 370.55 1335.46 366.52 1376.3 255.84 1385.97 52.19 1389.73 16.73 1369.85 30.16 1344.6 248.31 1255.4 370.55"/>
  <path class="cls-3" d="M1202.03.13s-1.13,20.76,20.9,19.69,32.24,0,32.24,0c0,0,5.37,19.34,32.24,17.19s33.85-5.91,33.85-5.91c0,0,1.07,19.34,31.16,16.12s39.22-11.28,39.22-11.28c0,0,40.84,23.29,72,11.65s38.69-31.6,38.69-31.6c0,0,40.78-3.63,37.01-15.99"/>
  <path class="cls-6" d="M878.21,700.18l-68.78,152.6s11.28,12.36,0,19.34-22.03,19.34-25.25,7.52,3.22-23.64,10.21-24.72,79.52-157.97,79.52-157.97l4.3,3.22Z"/>
  <path class="cls-6" d="M993.19,687.65l7.52-12.44,89.73,162.27,6.45,18.27,21.49,10.75s7.52,23.1,4.3,23.1h-24.72l-14.51-18.81v-9.13l-90.27-174.01Z"/>
  <path class="cls-6" d="M899.7,908.4l15.4,1.79v127.16s-5.73,12.9-7.7,12.9-31.7.72-29.19-9.67,18.37-4.66,18.37-4.66l3.12-127.52Z"/>
  <path class="cls-6" d="M986.75,897.66l17.55-5.73,14.33,128.96s25.43-6.81,19.34,3.58-33.31,13.25-33.31,13.25l-17.91-140.06Z"/>
  <path class="cls-5" d="M881.79,646.19s-28.3,206.69-28.3,210.27v51.58s63.04,12.9,103.88,5.01,94.57-34.39,94.57-34.39c0,0-15.04-92.42-27.22-119.64s-36.54-113.91-36.54-113.91l-106.39,1.07Z"/>
  <path class="cls-4" d="M806.21,530.13c23.1-82.21,52.12-127.34,124.66-138.63s127.48,108.54,127.48,108.54c0,0,26.2,131.64,6.31,157.43s-25.79-9.13-25.79-9.13c0,0,8.06,24.18-9.67,26.87s-13.43-13.43-13.43-13.43c0,0,18.05,28.1-8.17,25.87s-26.22-25.87-26.22-25.87c0,0-1.31,40.84-20.54,29.01s-28.36-39.76-28.36-39.76c0,0,4.7,57.45-16.66,36.62s-31.7-22.65-30.63-15.66-9.13,31.88-13.43,29.37c-23.63-13.79-18.27-13.71-18.27-13.71,0,0-23.1,29.47-30.09-17.27s-25.79-94.57-23.1-112.3,5.91-27.94,5.91-27.94Z"/>
</svg>